# xmcd
#
# Track frame offsets:
#	150
#	17805
#	32916
#	53038
#	73753
#	89029
#	104418
#	122071
#	137181
#	157303
#	178017
#	193254
#
# Disc length: 2781 seconds
#
# Revision: 1
# Processed by: cddbd v1.5.2PL0 Copyright (c) Steve Scherf et al.
# Submitted via: audiograbber 1.83.01
#
DISCID=b80adb0c
DTITLE=Chartbuster - 20100
DYEAR=1900
DGENRE=Country
TTITLE0=Hill, Faith w/Vocal - Love Ain't Like That
TTITLE1=Hill, Faith w/Vocal - This Kiss
TTITLE2=Hill, Faith w/Vocal - Let Me Let Go
TTITLE3=Hill, Faith and Tim McGraw w/Vocal - Just To Here You Say That You Love M
TTITLE3=e
TTITLE4=Hill, Faith w/Vocal - Let's Go To Vegas
TTITLE5=Hill, Faith w/Vocal - It Matters To Me
TTITLE6=Hill, Faith - Love Ain't Like That
TTITLE7=Hill, Faith - This Kiss
TTITLE8=Hill, Faith - Let Me Let Go
TTITLE9=Hill, Faith and Tim McGraw - Just To Here You Say That You Love Me
TTITLE10=Hill, Faith - Let's Go To Vegas
TTITLE11=Hill, Faith - It Matters To Me
EXTD=
EXTT0=
EXTT1=
EXTT2=
EXTT3=
EXTT4=
EXTT5=
EXTT6=
EXTT7=
EXTT8=
EXTT9=
EXTT10=
EXTT11=
PLAYORDER=
